- 
http://www.Speed.Cd      fast  and The Hottest Private Tracker on the net

   signup is open now

Please Seed back to make the speed Faster!!!

------------------nfo--------------------------
-[align=center][IMG]http://i.imgur.com/OsPwl.jpg[/IMG]

[IMG]http://i796.photobucket.com/albums/yy246/jungledave7080/twisted/PresInfoRaw-1.png[/IMG]

Complete name : Melancholla [2011] R5 - PRESTiGE.avi 
Format : AVI 
Format/Info : Audio Video Interleave 
File size : 703 MiB 
Duration : 2h 9mn 
Overall bit rate : 756 Kbps 
IMDB: http://www.imdb.com/title/tt1527186/
Encoder:[color=#6600CC][b][i]Twisted[/i][/b][/color]
Source: Melancholia.2011.R5.PAL.DVD9

[IMG]http://i796.photobucket.com/albums/yy246/jungledave7080/twisted/PresVidRaw-1.png[/IMG]

ID : 0 
Format : MPEG-4 Visual 
Format profile : Advanced Simple@L5 
Format settings, BVOP : 2 
Format settings, QPel : No 
Format settings, GMC : No warppoints 
Format settings, Matrix : Default (H.263) 
Muxing mode : Packed bitstream 
Codec ID : XVID 
Codec ID/Hint : XviD 
Duration : 2h 9mn 
Bit rate : 619 Kbps 
Width : 720 pixels 
Height : 304 pixels 
Display aspect ratio : 2.35:1 
Frame rate : 25.000 fps 
Color space : YUV 
Chroma subsampling : 4:2:0 
Bit depth : 8 bits 
Scan type : Progressive 
Compression mode : Lossy 
Bits/(Pixel*Frame) : 0.113 
Stream size : 575 MiB (82%) 
Writing library : XviD 63 


[IMG]http://i796.photobucket.com/albums/yy246/jungledave7080/twisted/PresAudRaw-1.png[/IMG]

ID : 1 
Format : MPEG Audio 
Format version : Version 1 
Format profile : Layer 3 
Mode : Joint stereo 
Mode extension : MS Stereo 
Codec ID : 55 
Codec ID/Hint : MP3 
Duration : 2h 9mn 
Bit rate mode : Constant 
Bit rate : 128 Kbps 
Channel(s) : 2 channels 
Sampling rate : 44.1 KHz 
Compression mode : Lossy 
Delay relative to video : 26ms 
Stream size : 119 MiB (17%) 
Alignment : Split accross interleaves 
Interleave, duration : 40 ms (1.00 video frame) 
Interleave, preload duration : 500 ms 


[IMG]http://i796.photobucket.com/albums/yy246/jungledave7080/twisted/PresPlotRaw-1.png[/IMG]

Two sisters find their already strained relationship challenged as a mysterious new planet threatens to collide into the Earth. 


[IMG]http://i796.photobucket.com/albums/yy246/jungledave7080/twisted/PresScrnRaw-1.png[/IMG]

[IMG]http://i.imgur.com/Oqv04.png[/IMG]
[IMG]http://i.imgur.com/bBk0g.png[/IMG]
[IMG]http://i.imgur.com/ET263.png[/IMG]
[IMG]http://i.imgur.com/N4Dxl.png[/IMG]


[IMG]http://i796.photobucket.com/albums/yy246/jungledave7080/twisted/PresNoteRaw-1.png[/IMG]

[color=#FF0000][b]WE DONT RELEASE EVERYTHING TO OTHERS SITES YOU WANT MORE OF OUR STUFF COME FIND US AT .......[/b][/color]
[color=#FF0000][b]WE ARE LOOKING FOR SUPPLIERS BLURAY CAM R5 PRE RETAIL DVD GOT SOMETHING WE MIGHT LIKE WHEN YOU FIND US TELL US.......[/b][/color]


Greets going out to

| Bigguy | DiLLoN | Thorn | Flawl3ss | Imagine | CTFX | BMB | akosipalos | HiTM4N | PA4U2C |


[img]http://i.imgur.com/YvsDx.png[/img][/align]